G04 MADE WITH FRITZING*
G04 WWW.FRITZING.ORG*
G04 DOUBLE SIDED*
G04 HOLES PLATED*
G04 CONTOUR ON CENTER OF CONTOUR VECTOR*
%ASAXBY*%
%FSLAX23Y23*%
%MOIN*%
%OFA0B0*%
%SFA1.0B1.0*%
%ADD10C,0.075000*%
%ADD11C,0.078000*%
%ADD12C,0.074000*%
%ADD13C,0.070000*%
%ADD14C,0.059200*%
%ADD15R,0.078000X0.078000*%
%ADD16R,0.070000X0.069972*%
%ADD17R,0.059200X0.059200*%
%ADD18C,0.024000*%
%LNCOPPER1*%
G90*
G70*
G54D10*
X1288Y1758D03*
X888Y1758D03*
X688Y3058D03*
X688Y2658D03*
G54D11*
X1638Y1708D03*
X1738Y1708D03*
G54D10*
X1288Y1658D03*
X888Y1658D03*
G54D12*
X188Y1758D03*
X288Y1758D03*
X388Y1758D03*
X488Y1758D03*
X588Y1758D03*
X688Y1758D03*
G54D13*
X1088Y1458D03*
X1488Y1458D03*
X1688Y1458D03*
X1288Y1458D03*
X1588Y1458D03*
X1388Y1458D03*
X1188Y1458D03*
X988Y1458D03*
G54D10*
X388Y3058D03*
X388Y2658D03*
G54D13*
X288Y1958D03*
X388Y1958D03*
X488Y1958D03*
X588Y1958D03*
X688Y1958D03*
X788Y1958D03*
X888Y1958D03*
X988Y1958D03*
X1088Y1958D03*
X1188Y1958D03*
X1288Y1958D03*
X1388Y1958D03*
X1488Y1958D03*
X1588Y1958D03*
X1688Y1958D03*
X288Y2558D03*
X388Y2558D03*
X488Y2558D03*
X588Y2558D03*
X688Y2558D03*
X788Y2558D03*
X888Y2558D03*
X988Y2558D03*
X1088Y2558D03*
X1188Y2558D03*
X1288Y2558D03*
X1388Y2558D03*
X1488Y2558D03*
X1588Y2558D03*
X1688Y2558D03*
G54D10*
X1488Y3058D03*
X1488Y2658D03*
X1688Y3058D03*
X1688Y2658D03*
G54D11*
X688Y3158D03*
X588Y3158D03*
G54D14*
X852Y3158D03*
X1088Y3158D03*
X1010Y3158D03*
X931Y3158D03*
G54D11*
X1388Y3158D03*
X1288Y3158D03*
X1688Y3158D03*
X1588Y3158D03*
X388Y3158D03*
X288Y3158D03*
G54D15*
X1638Y1708D03*
G54D16*
X288Y1958D03*
G54D15*
X688Y3158D03*
G54D17*
X852Y3158D03*
G54D15*
X1388Y3158D03*
X1688Y3158D03*
X388Y3158D03*
G54D18*
X88Y3058D02*
X88Y2758D01*
D02*
X88Y2758D02*
X88Y2358D01*
D02*
X88Y2358D02*
X988Y2358D01*
D02*
X988Y2358D02*
X1176Y2545D01*
D02*
X371Y3058D02*
X88Y3058D01*
D02*
X1288Y2858D02*
X1476Y3046D01*
D02*
X1688Y3139D02*
X1688Y3076D01*
D02*
X588Y2958D02*
X676Y3046D01*
D02*
X188Y2958D02*
X588Y2958D01*
D02*
X188Y2458D02*
X188Y2958D01*
D02*
X988Y2458D02*
X188Y2458D01*
D02*
X1076Y2545D02*
X988Y2458D01*
D02*
X854Y3135D02*
X887Y2576D01*
D02*
X932Y3142D02*
X987Y2576D01*
D02*
X1388Y2758D02*
X1388Y2576D01*
D02*
X1676Y3046D02*
X1388Y2758D01*
D02*
X1288Y2576D02*
X1288Y2858D01*
D02*
X688Y1858D02*
X588Y1858D01*
D02*
X588Y1858D02*
X502Y1772D01*
D02*
X1588Y1758D02*
X1588Y1658D01*
D02*
X1588Y1658D02*
X1402Y1472D01*
D02*
X1388Y1658D02*
X1202Y1472D01*
D02*
X1488Y1658D02*
X1302Y1472D01*
D02*
X1388Y1858D02*
X1476Y1945D01*
D02*
X1088Y1858D02*
X1388Y1858D01*
D02*
X1088Y1478D02*
X1088Y1858D01*
D02*
X776Y1945D02*
X688Y1858D01*
D02*
X1671Y2658D02*
X1506Y2658D01*
D02*
X1888Y2458D02*
X1888Y1658D01*
D02*
X1888Y1658D02*
X1702Y1472D01*
D02*
X1488Y1758D02*
X1488Y1658D01*
D02*
X1388Y1758D02*
X1388Y1658D01*
D02*
X1676Y1945D02*
X1488Y1758D01*
D02*
X1576Y1945D02*
X1388Y1758D01*
D02*
X1788Y1958D02*
X1588Y1758D01*
D02*
X1788Y2458D02*
X1788Y1958D01*
D02*
X1701Y2545D02*
X1788Y2458D01*
D02*
X1701Y2646D02*
X1888Y2458D01*
D02*
X688Y1658D02*
X602Y1744D01*
D02*
X888Y1676D02*
X888Y1741D01*
D02*
X871Y1658D02*
X688Y1658D01*
D02*
X688Y3139D02*
X688Y3076D01*
D02*
X388Y3076D02*
X388Y3139D01*
D02*
X1476Y3071D02*
X1402Y3145D01*
G04 End of Copper1*
M02*