G04 MADE WITH FRITZING*
G04 WWW.FRITZING.ORG*
G04 DOUBLE SIDED*
G04 HOLES PLATED*
G04 CONTOUR ON CENTER OF CONTOUR VECTOR*
%ASAXBY*%
%FSLAX23Y23*%
%MOIN*%
%OFA0B0*%
%SFA1.0B1.0*%
%ADD10C,0.075000*%
%ADD11C,0.078000*%
%ADD12C,0.074000*%
%ADD13C,0.070000*%
%ADD14C,0.059200*%
%ADD15R,0.078000X0.078000*%
%ADD16R,0.070000X0.069972*%
%ADD17R,0.059200X0.059200*%
%ADD18C,0.024000*%
%LNCOPPER0*%
G90*
G70*
G54D10*
X1288Y1758D03*
X888Y1758D03*
X688Y3058D03*
X688Y2658D03*
G54D11*
X1638Y1708D03*
X1738Y1708D03*
G54D10*
X1288Y1658D03*
X888Y1658D03*
G54D12*
X188Y1758D03*
X288Y1758D03*
X388Y1758D03*
X488Y1758D03*
X588Y1758D03*
X688Y1758D03*
G54D13*
X1088Y1458D03*
X1488Y1458D03*
X1688Y1458D03*
X1288Y1458D03*
X1588Y1458D03*
X1388Y1458D03*
X1188Y1458D03*
X988Y1458D03*
G54D10*
X388Y3058D03*
X388Y2658D03*
G54D13*
X288Y1958D03*
X388Y1958D03*
X488Y1958D03*
X588Y1958D03*
X688Y1958D03*
X788Y1958D03*
X888Y1958D03*
X988Y1958D03*
X1088Y1958D03*
X1188Y1958D03*
X1288Y1958D03*
X1388Y1958D03*
X1488Y1958D03*
X1588Y1958D03*
X1688Y1958D03*
X288Y2558D03*
X388Y2558D03*
X488Y2558D03*
X588Y2558D03*
X688Y2558D03*
X788Y2558D03*
X888Y2558D03*
X988Y2558D03*
X1088Y2558D03*
X1188Y2558D03*
X1288Y2558D03*
X1388Y2558D03*
X1488Y2558D03*
X1588Y2558D03*
X1688Y2558D03*
G54D10*
X1488Y3058D03*
X1488Y2658D03*
X1688Y3058D03*
X1688Y2658D03*
G54D11*
X688Y3158D03*
X588Y3158D03*
G54D14*
X852Y3158D03*
X1088Y3158D03*
X1010Y3158D03*
X931Y3158D03*
G54D11*
X1388Y3158D03*
X1288Y3158D03*
X1688Y3158D03*
X1588Y3158D03*
X388Y3158D03*
X288Y3158D03*
G54D15*
X1638Y1708D03*
G54D16*
X288Y1958D03*
G54D15*
X688Y3158D03*
G54D17*
X852Y3158D03*
G54D15*
X1388Y3158D03*
X1688Y3158D03*
X388Y3158D03*
G54D18*
X1488Y1558D02*
X1625Y1695D01*
D02*
X288Y2658D02*
X376Y2571D01*
D02*
X288Y3139D02*
X288Y2658D01*
D02*
X1488Y1478D02*
X1488Y1558D01*
D02*
X576Y1945D02*
X402Y1772D01*
D02*
X1488Y3258D02*
X1575Y3172D01*
D02*
X488Y2658D02*
X406Y2658D01*
D02*
X1388Y3258D02*
X1488Y3258D01*
D02*
X1302Y3172D02*
X1388Y3258D01*
D02*
X1269Y3158D02*
X1104Y3158D01*
D02*
X988Y3258D02*
X688Y3258D01*
D02*
X688Y3258D02*
X602Y3172D01*
D02*
X1077Y3169D02*
X988Y3258D01*
D02*
X388Y3258D02*
X302Y3172D01*
D02*
X575Y3172D02*
X488Y3258D01*
D02*
X488Y3258D02*
X388Y3258D01*
D02*
X888Y1558D02*
X1188Y1558D01*
D02*
X1288Y1858D02*
X788Y1858D01*
D02*
X788Y1858D02*
X701Y1945D01*
D02*
X1288Y1776D02*
X1288Y1858D01*
D02*
X188Y2158D02*
X188Y1858D01*
D02*
X188Y1858D02*
X274Y1772D01*
D02*
X576Y2545D02*
X188Y2158D01*
D02*
X706Y2658D02*
X1471Y2658D01*
D02*
X601Y2571D02*
X676Y2646D01*
D02*
X576Y2571D02*
X488Y2658D01*
D02*
X488Y1358D02*
X1788Y1358D01*
D02*
X1488Y2758D02*
X1588Y2658D01*
D02*
X1088Y2758D02*
X1488Y2758D01*
D02*
X1588Y2658D02*
X1588Y2576D01*
D02*
X1013Y3142D02*
X1088Y2758D01*
D02*
X1301Y1646D02*
X1474Y1472D01*
D02*
X1188Y1558D02*
X1276Y1646D01*
D02*
X788Y1658D02*
X888Y1558D01*
D02*
X788Y1758D02*
X788Y1658D01*
D02*
X601Y1945D02*
X788Y1758D01*
D02*
X1788Y1658D02*
X1752Y1695D01*
D02*
X1788Y1358D02*
X1788Y1658D01*
D02*
X88Y1758D02*
X488Y1358D01*
D02*
X88Y2358D02*
X88Y1758D01*
D02*
X276Y2545D02*
X88Y2358D01*
G04 End of Copper0*
M02*