; NON-PLATED HOLES START AT T1
; THROUGH (PLATED) HOLES START AT T100
M48
INCH
T100C0.032000
T101C0.038000
T102C0.040000
T103C0.035000
T104C0.036000
%
T100
X010095Y031581
X009308Y031581
X010883Y031581
X008520Y031581
T101
X015883Y031581
X012883Y031581
X005883Y031581
X002883Y031581
X013883Y031581
X016883Y031581
X016383Y017081
X017383Y017081
X006883Y031581
X003883Y031581
T102
X015883Y014581
X009883Y014581
X004883Y017581
X006883Y017581
X016883Y014581
X003883Y017581
X005883Y017581
X002883Y017581
X013883Y014581
X012883Y014581
X001883Y017581
X011883Y014581
X010883Y014581
X014883Y014581
T103
X016883Y030581
X014883Y030581
X016883Y026581
X008883Y016581
X006883Y030581
X012883Y017581
X014883Y026581
X012883Y016581
X003883Y026581
X006883Y026581
X008883Y017581
X003883Y030581
T104
X008883Y019581
X015883Y025581
X016883Y019581
X008883Y025581
X002883Y025581
X012883Y025581
X002883Y019581
X016883Y025581
X009883Y025581
X012883Y019581
X004883Y019581
X010883Y019581
X006883Y019581
X013883Y025581
X003883Y025581
X015883Y019581
X014883Y019581
X003883Y019581
X007883Y025581
X004883Y025581
X014883Y025581
X009883Y019581
X005883Y025581
X005883Y019581
X006883Y025581
X010883Y025581
X011883Y019581
X013883Y019581
X011883Y025581
X007883Y019581
T00
M30
